<mxfile host="app.diagrams.net" agent="Mozilla/5.0 (Windows NT 10.0; Win64; x64) AppleWebKit/537.36 (KHTML, like Gecko) Chrome/141.0.0.0 Safari/537.36 Edg/141.0.0.0" version="28.2.8">
  <diagram name="Page-1" id="tNHp3qSNPNm29JRAp-hn">
    <mxGraphModel dx="1418" dy="764" grid="1" gridSize="10" guides="1" tooltips="1" connect="1" arrows="1" fold="1" page="1" pageScale="1" pageWidth="827" pageHeight="1169" math="0" shadow="0">
      <root>
        <mxCell id="0" />
        <mxCell id="1" parent="0" />
        <mxCell id="7hEjAUORKdWWa-dkbvTh-3" value="" style="edgeStyle=orthogonalEdgeStyle;rounded=0;orthogonalLoop=1;jettySize=auto;html=1;" edge="1" parent="1" source="7hEjAUORKdWWa-dkbvTh-1" target="7hEjAUORKdWWa-dkbvTh-2">
          <mxGeometry relative="1" as="geometry" />
        </mxCell>
        <mxCell id="7hEjAUORKdWWa-dkbvTh-1" value="Start" style="strokeWidth=2;html=1;shape=mxgraph.flowchart.start_1;whiteSpace=wrap;" vertex="1" parent="1">
          <mxGeometry x="350" y="10" width="100" height="60" as="geometry" />
        </mxCell>
        <mxCell id="7hEjAUORKdWWa-dkbvTh-5" value="" style="edgeStyle=orthogonalEdgeStyle;rounded=0;orthogonalLoop=1;jettySize=auto;html=1;" edge="1" parent="1" source="7hEjAUORKdWWa-dkbvTh-2" target="7hEjAUORKdWWa-dkbvTh-4">
          <mxGeometry relative="1" as="geometry" />
        </mxCell>
        <mxCell id="7hEjAUORKdWWa-dkbvTh-7" value="No" style="edgeLabel;html=1;align=center;verticalAlign=middle;resizable=0;points=[];" vertex="1" connectable="0" parent="7hEjAUORKdWWa-dkbvTh-5">
          <mxGeometry x="0.5" y="-2" relative="1" as="geometry">
            <mxPoint as="offset" />
          </mxGeometry>
        </mxCell>
        <mxCell id="7hEjAUORKdWWa-dkbvTh-9" value="" style="edgeStyle=orthogonalEdgeStyle;rounded=0;orthogonalLoop=1;jettySize=auto;html=1;" edge="1" parent="1" source="7hEjAUORKdWWa-dkbvTh-2" target="7hEjAUORKdWWa-dkbvTh-8">
          <mxGeometry relative="1" as="geometry" />
        </mxCell>
        <mxCell id="7hEjAUORKdWWa-dkbvTh-13" value="Yes" style="edgeLabel;html=1;align=center;verticalAlign=middle;resizable=0;points=[];" vertex="1" connectable="0" parent="7hEjAUORKdWWa-dkbvTh-9">
          <mxGeometry x="-0.3826" y="-2" relative="1" as="geometry">
            <mxPoint as="offset" />
          </mxGeometry>
        </mxCell>
        <mxCell id="7hEjAUORKdWWa-dkbvTh-2" value="Do you want to see the rules?" style="strokeWidth=2;html=1;shape=mxgraph.flowchart.decision;whiteSpace=wrap;" vertex="1" parent="1">
          <mxGeometry x="350" y="100" width="100" height="100" as="geometry" />
        </mxCell>
        <mxCell id="7hEjAUORKdWWa-dkbvTh-18" style="edgeStyle=orthogonalEdgeStyle;rounded=0;orthogonalLoop=1;jettySize=auto;html=1;exitX=0.5;exitY=1;exitDx=0;exitDy=0;exitPerimeter=0;entryX=0.25;entryY=0;entryDx=0;entryDy=0;" edge="1" parent="1" source="7hEjAUORKdWWa-dkbvTh-4" target="7hEjAUORKdWWa-dkbvTh-14">
          <mxGeometry relative="1" as="geometry" />
        </mxCell>
        <mxCell id="7hEjAUORKdWWa-dkbvTh-23" value="Easy" style="edgeLabel;html=1;align=center;verticalAlign=middle;resizable=0;points=[];" vertex="1" connectable="0" parent="7hEjAUORKdWWa-dkbvTh-18">
          <mxGeometry x="0.5619" y="2" relative="1" as="geometry">
            <mxPoint as="offset" />
          </mxGeometry>
        </mxCell>
        <mxCell id="7hEjAUORKdWWa-dkbvTh-19" style="edgeStyle=orthogonalEdgeStyle;rounded=0;orthogonalLoop=1;jettySize=auto;html=1;entryX=1;entryY=0;entryDx=0;entryDy=0;" edge="1" parent="1" source="7hEjAUORKdWWa-dkbvTh-4" target="7hEjAUORKdWWa-dkbvTh-14">
          <mxGeometry relative="1" as="geometry" />
        </mxCell>
        <mxCell id="7hEjAUORKdWWa-dkbvTh-21" value="Hard" style="edgeLabel;html=1;align=center;verticalAlign=middle;resizable=0;points=[];" vertex="1" connectable="0" parent="7hEjAUORKdWWa-dkbvTh-19">
          <mxGeometry x="0.7" relative="1" as="geometry">
            <mxPoint as="offset" />
          </mxGeometry>
        </mxCell>
        <mxCell id="7hEjAUORKdWWa-dkbvTh-4" value="Select difficulty" style="strokeWidth=2;html=1;shape=mxgraph.flowchart.decision;whiteSpace=wrap;" vertex="1" parent="1">
          <mxGeometry x="350" y="220" width="100" height="100" as="geometry" />
        </mxCell>
        <mxCell id="7hEjAUORKdWWa-dkbvTh-6" value="Else" style="edgeStyle=orthogonalEdgeStyle;rounded=0;orthogonalLoop=1;jettySize=auto;html=1;" edge="1" parent="1" source="7hEjAUORKdWWa-dkbvTh-2" target="7hEjAUORKdWWa-dkbvTh-2">
          <mxGeometry relative="1" as="geometry" />
        </mxCell>
        <mxCell id="7hEjAUORKdWWa-dkbvTh-12" style="edgeStyle=orthogonalEdgeStyle;rounded=0;orthogonalLoop=1;jettySize=auto;html=1;" edge="1" parent="1" source="7hEjAUORKdWWa-dkbvTh-8" target="7hEjAUORKdWWa-dkbvTh-4">
          <mxGeometry relative="1" as="geometry" />
        </mxCell>
        <mxCell id="7hEjAUORKdWWa-dkbvTh-8" value="Explains rules to player" style="rounded=1;whiteSpace=wrap;html=1;absoluteArcSize=1;arcSize=14;strokeWidth=2;" vertex="1" parent="1">
          <mxGeometry x="140" y="220" width="100" height="100" as="geometry" />
        </mxCell>
        <mxCell id="7hEjAUORKdWWa-dkbvTh-14" value="Guess a number" style="shape=parallelogram;html=1;strokeWidth=2;perimeter=parallelogramPerimeter;whiteSpace=wrap;rounded=1;arcSize=12;size=0.23;" vertex="1" parent="1">
          <mxGeometry x="320" y="380" width="140" height="60" as="geometry" />
        </mxCell>
        <mxCell id="7hEjAUORKdWWa-dkbvTh-20" style="edgeStyle=orthogonalEdgeStyle;rounded=0;orthogonalLoop=1;jettySize=auto;html=1;entryX=0.615;entryY=-0.033;entryDx=0;entryDy=0;entryPerimeter=0;" edge="1" parent="1" source="7hEjAUORKdWWa-dkbvTh-4" target="7hEjAUORKdWWa-dkbvTh-14">
          <mxGeometry relative="1" as="geometry" />
        </mxCell>
        <mxCell id="7hEjAUORKdWWa-dkbvTh-22" value="Medium" style="edgeLabel;html=1;align=center;verticalAlign=middle;resizable=0;points=[];" vertex="1" connectable="0" parent="7hEjAUORKdWWa-dkbvTh-20">
          <mxGeometry x="0.3444" relative="1" as="geometry">
            <mxPoint as="offset" />
          </mxGeometry>
        </mxCell>
        <mxCell id="7hEjAUORKdWWa-dkbvTh-25" value="Do you want to play again?" style="strokeWidth=2;html=1;shape=mxgraph.flowchart.decision;whiteSpace=wrap;" vertex="1" parent="1">
          <mxGeometry x="570" y="500" width="100" height="100" as="geometry" />
        </mxCell>
        <mxCell id="7hEjAUORKdWWa-dkbvTh-27" style="edgeStyle=orthogonalEdgeStyle;rounded=0;orthogonalLoop=1;jettySize=auto;html=1;entryX=1;entryY=0.5;entryDx=0;entryDy=0;entryPerimeter=0;" edge="1" parent="1" source="7hEjAUORKdWWa-dkbvTh-25" target="7hEjAUORKdWWa-dkbvTh-1">
          <mxGeometry relative="1" as="geometry">
            <mxPoint x="480" y="150" as="targetPoint" />
            <Array as="points">
              <mxPoint x="620" y="390" />
              <mxPoint x="510" y="390" />
              <mxPoint x="510" y="40" />
            </Array>
          </mxGeometry>
        </mxCell>
        <mxCell id="7hEjAUORKdWWa-dkbvTh-31" value="Yes" style="edgeLabel;html=1;align=center;verticalAlign=middle;resizable=0;points=[];" vertex="1" connectable="0" parent="7hEjAUORKdWWa-dkbvTh-27">
          <mxGeometry x="0.45" y="-1" relative="1" as="geometry">
            <mxPoint as="offset" />
          </mxGeometry>
        </mxCell>
        <mxCell id="7hEjAUORKdWWa-dkbvTh-28" style="edgeStyle=orthogonalEdgeStyle;rounded=0;orthogonalLoop=1;jettySize=auto;html=1;entryX=0;entryY=0.5;entryDx=0;entryDy=0;entryPerimeter=0;exitX=0.45;exitY=0.983;exitDx=0;exitDy=0;exitPerimeter=0;" edge="1" parent="1" source="7hEjAUORKdWWa-dkbvTh-14" target="7hEjAUORKdWWa-dkbvTh-25">
          <mxGeometry relative="1" as="geometry" />
        </mxCell>
        <mxCell id="7hEjAUORKdWWa-dkbvTh-32" value="Correct guess" style="edgeLabel;html=1;align=center;verticalAlign=middle;resizable=0;points=[];" vertex="1" connectable="0" parent="7hEjAUORKdWWa-dkbvTh-28">
          <mxGeometry x="-0.161" y="3" relative="1" as="geometry">
            <mxPoint as="offset" />
          </mxGeometry>
        </mxCell>
        <mxCell id="7hEjAUORKdWWa-dkbvTh-29" value="End" style="strokeWidth=2;html=1;shape=mxgraph.flowchart.terminator;whiteSpace=wrap;" vertex="1" parent="1">
          <mxGeometry x="570" y="670" width="100" height="60" as="geometry" />
        </mxCell>
        <mxCell id="7hEjAUORKdWWa-dkbvTh-30" style="edgeStyle=orthogonalEdgeStyle;rounded=0;orthogonalLoop=1;jettySize=auto;html=1;entryX=0.5;entryY=0;entryDx=0;entryDy=0;entryPerimeter=0;" edge="1" parent="1" source="7hEjAUORKdWWa-dkbvTh-25" target="7hEjAUORKdWWa-dkbvTh-29">
          <mxGeometry relative="1" as="geometry" />
        </mxCell>
        <mxCell id="7hEjAUORKdWWa-dkbvTh-34" value="No" style="edgeLabel;html=1;align=center;verticalAlign=middle;resizable=0;points=[];" vertex="1" connectable="0" parent="7hEjAUORKdWWa-dkbvTh-30">
          <mxGeometry x="-0.0857" relative="1" as="geometry">
            <mxPoint as="offset" />
          </mxGeometry>
        </mxCell>
        <mxCell id="7hEjAUORKdWWa-dkbvTh-38" style="edgeStyle=orthogonalEdgeStyle;rounded=0;orthogonalLoop=1;jettySize=auto;html=1;" edge="1" parent="1" source="7hEjAUORKdWWa-dkbvTh-35">
          <mxGeometry relative="1" as="geometry">
            <mxPoint x="570" y="550" as="targetPoint" />
          </mxGeometry>
        </mxCell>
        <mxCell id="7hEjAUORKdWWa-dkbvTh-35" value="Lets player know they have lost" style="rounded=1;whiteSpace=wrap;html=1;absoluteArcSize=1;arcSize=14;strokeWidth=2;" vertex="1" parent="1">
          <mxGeometry x="150" y="535" width="100" height="100" as="geometry" />
        </mxCell>
        <mxCell id="7hEjAUORKdWWa-dkbvTh-36" style="edgeStyle=orthogonalEdgeStyle;rounded=0;orthogonalLoop=1;jettySize=auto;html=1;entryX=0.42;entryY=0;entryDx=0;entryDy=0;entryPerimeter=0;" edge="1" parent="1" source="7hEjAUORKdWWa-dkbvTh-14" target="7hEjAUORKdWWa-dkbvTh-35">
          <mxGeometry relative="1" as="geometry" />
        </mxCell>
        <mxCell id="7hEjAUORKdWWa-dkbvTh-37" value="Run out of guesses" style="edgeLabel;html=1;align=center;verticalAlign=middle;resizable=0;points=[];" vertex="1" connectable="0" parent="7hEjAUORKdWWa-dkbvTh-36">
          <mxGeometry x="0.5392" y="1" relative="1" as="geometry">
            <mxPoint as="offset" />
          </mxGeometry>
        </mxCell>
        <mxCell id="7hEjAUORKdWWa-dkbvTh-40" style="edgeStyle=orthogonalEdgeStyle;rounded=0;orthogonalLoop=1;jettySize=auto;html=1;elbow=vertical;entryX=1;entryY=1;entryDx=0;entryDy=0;" edge="1" parent="1" source="7hEjAUORKdWWa-dkbvTh-14" target="7hEjAUORKdWWa-dkbvTh-14">
          <mxGeometry relative="1" as="geometry">
            <Array as="points">
              <mxPoint x="510" y="410" />
            </Array>
          </mxGeometry>
        </mxCell>
        <mxCell id="7hEjAUORKdWWa-dkbvTh-41" value="Incorrect Guess" style="edgeLabel;html=1;align=center;verticalAlign=middle;resizable=0;points=[];" vertex="1" connectable="0" parent="7hEjAUORKdWWa-dkbvTh-40">
          <mxGeometry x="-0.0551" y="-1" relative="1" as="geometry">
            <mxPoint as="offset" />
          </mxGeometry>
        </mxCell>
      </root>
    </mxGraphModel>
  </diagram>
</mxfile>
